<?xml version="1.0" encoding="utf-8"?>
<!-- Generator: Adobe Illustrator 27.5.0, SVG Export Plug-In . SVG Version: 6.00 Build 0)  -->
<svg version="1.1" xmlns="http://www.w3.org/2000/svg" xmlns:xlink="http://www.w3.org/1999/xlink" x="0px" y="0px"
     viewBox="0 50 500 400" style="enable-background:new 0 0 500 500;" xml:space="preserve">
<g id="Background_Complete">
	<g>
		<rect y="382.398" style="fill:#EBEBEB;" width="500" height="0.25"/>
		<rect x="416.779" y="398.494" style="fill:#EBEBEB;" width="33.122" height="0.25"/>
		<rect x="322.527" y="401.208" style="fill:#EBEBEB;" width="8.693" height="0.25"/>
		<rect x="396.586" y="389.208" style="fill:#EBEBEB;" width="19.192" height="0.25"/>
		<rect x="52.459" y="390.888" style="fill:#EBEBEB;" width="43.193" height="0.25"/>
		<rect x="104.556" y="390.888" style="fill:#EBEBEB;" width="6.333" height="0.25"/>
		<rect x="131.471" y="395.111" style="fill:#EBEBEB;" width="93.676" height="0.25"/>
		<path style="fill:#EBEBEB;" d="M237.014,337.8H43.915c-3.147,0-5.708-2.561-5.708-5.708V60.66c0-3.147,2.561-5.708,5.708-5.708
			h193.099c3.146,0,5.707,2.561,5.707,5.708v271.432C242.721,335.239,240.16,337.8,237.014,337.8z M43.915,55.203
			c-3.01,0-5.458,2.448-5.458,5.458v271.432c0,3.01,2.448,5.458,5.458,5.458h193.099c3.009,0,5.457-2.448,5.457-5.458V60.66
			c0-3.009-2.448-5.458-5.457-5.458H43.915z"/>
		<path style="fill:#EBEBEB;" d="M453.31,337.8H260.212c-3.147,0-5.707-2.561-5.707-5.708V60.66c0-3.147,2.561-5.708,5.707-5.708
			H453.31c3.148,0,5.708,2.561,5.708,5.708v271.432C459.019,335.239,456.458,337.8,453.31,337.8z M260.212,55.203
			c-3.009,0-5.457,2.448-5.457,5.458v271.432c0,3.01,2.448,5.458,5.457,5.458H453.31c3.01,0,5.458-2.448,5.458-5.458V60.66
			c0-3.009-2.448-5.458-5.458-5.458H260.212z"/>
	</g>
	<g>
		<rect x="59.028" y="131.889" style="fill:#E0E0E0;" width="381.943" height="253.138"/>
		<path style="fill:#F0F0F0;" d="M250,383.891V125.929c0,0,48.671-15.792,178.803-15.792v273.754H250z"/>
		<path style="fill:#E6E6E6;" d="M250,383.891V125.929c0,0-48.671-15.792-178.803-15.792v273.754H250z"/>
		<g>
			<g>
				<path style="fill:#E0E0E0;" d="M263.92,152.556c-1.213,0-2.278-0.885-2.468-2.122c-0.209-1.365,0.728-2.641,2.092-2.85
					c0.667-0.103,67.693-10.244,147.21-10.244c1.381,0,2.5,1.119,2.5,2.5c0,1.381-1.119,2.5-2.5,2.5
					c-79.117,0-145.788,10.084-146.452,10.186C264.173,152.546,264.046,152.556,263.92,152.556z"/>
			</g>
			<g>
				<path style="fill:#E0E0E0;" d="M263.92,171.087c-1.242,0-2.319-0.925-2.477-2.189c-0.172-1.37,0.799-2.62,2.169-2.792
					c0.74-0.093,74.872-9.305,147.143-9.305c1.381,0,2.5,1.119,2.5,2.5c0,1.381-1.119,2.5-2.5,2.5
					c-71.949,0-145.782,9.173-146.52,9.266C264.129,171.081,264.023,171.087,263.92,171.087z"/>
			</g>
			<g>
				<path style="fill:#E0E0E0;" d="M263.92,189.619c-1.266,0-2.352-0.957-2.484-2.244c-0.142-1.373,0.857-2.601,2.231-2.743
					c0.813-0.084,82.055-8.371,147.087-8.371c1.381,0,2.5,1.119,2.5,2.5c0,1.381-1.119,2.5-2.5,2.5
					c-64.778,0-145.765,8.261-146.575,8.344C264.092,189.615,264.005,189.619,263.92,189.619z"/>
			</g>
			<g>
				<path style="fill:#E0E0E0;" d="M263.92,208.151c-1.286,0-2.379-0.986-2.488-2.291c-0.116-1.376,0.906-2.585,2.282-2.7
					c0.886-0.074,89.244-7.438,147.04-7.438c1.381,0,2.5,1.119,2.5,2.5c0,1.381-1.119,2.5-2.5,2.5
					c-57.585,0-145.738,7.346-146.622,7.42C264.061,208.148,263.99,208.151,263.92,208.151z"/>
			</g>
			<g>
				<path style="fill:#E0E0E0;" d="M263.92,226.684c-1.304,0-2.402-1.011-2.492-2.331c-0.094-1.377,0.947-2.57,2.325-2.663
					c0.959-0.065,96.435-6.506,147.001-6.506c1.381,0,2.5,1.119,2.5,2.5c0,1.381-1.119,2.5-2.5,2.5
					c-50.396,0-145.705,6.429-146.662,6.494C264.035,226.682,263.977,226.684,263.92,226.684z"/>
			</g>
			<g>
				<path style="fill:#E0E0E0;" d="M263.92,245.216c-1.319,0-2.422-1.032-2.494-2.365c-0.074-1.379,0.983-2.557,2.362-2.631
					c1.031-0.056,103.629-5.575,146.966-5.575c1.381,0,2.5,1.119,2.5,2.5c0,1.381-1.119,2.5-2.5,2.5
					c-43.202,0-145.666,5.512-146.696,5.567C264.012,245.215,263.966,245.216,263.92,245.216z"/>
			</g>
			<g>
				<path style="fill:#E0E0E0;" d="M263.921,263.748c-1.332,0-2.439-1.051-2.496-2.395c-0.058-1.38,1.013-2.545,2.393-2.603
					c1.104-0.046,110.826-4.645,146.936-4.645c1.381,0,2.5,1.119,2.5,2.5c0,1.381-1.119,2.5-2.5,2.5
					c-36.006,0-145.623,4.594-146.726,4.641C263.992,263.747,263.957,263.748,263.921,263.748z"/>
			</g>
			<g>
				<path style="fill:#E0E0E0;" d="M263.921,282.28c-1.344,0-2.455-1.068-2.497-2.421c-0.044-1.38,1.04-2.534,2.419-2.578
					c1.177-0.037,118.025-3.716,146.91-3.716c1.381,0,2.5,1.119,2.5,2.5c0,1.381-1.119,2.5-2.5,2.5
					c-28.807,0-145.576,3.677-146.752,3.714C263.975,282.28,263.948,282.28,263.921,282.28z"/>
			</g>
			<g>
				<path style="fill:#E0E0E0;" d="M263.922,300.813c-1.355,0-2.468-1.083-2.499-2.444c-0.031-1.38,1.063-2.524,2.444-2.555
					c1.25-0.028,125.224-2.787,146.887-2.787c1.381,0,2.5,1.119,2.5,2.5c0,1.381-1.119,2.5-2.5,2.5
					c-21.607,0-145.526,2.758-146.775,2.785C263.96,300.813,263.94,300.813,263.922,300.813z"/>
			</g>
			<g>
				<path style="fill:#E0E0E0;" d="M263.922,319.345c-1.365,0-2.48-1.096-2.499-2.465c-0.019-1.381,1.084-2.516,2.465-2.535
					c1.323-0.018,132.426-1.857,146.866-1.857c1.381,0,2.5,1.119,2.5,2.5s-1.119,2.5-2.5,2.5c-14.406,0-145.474,1.839-146.796,1.857
					C263.946,319.345,263.934,319.345,263.922,319.345z"/>
			</g>
			<g>
				<path style="fill:#E0E0E0;" d="M263.922,337.877c-1.373,0-2.49-1.108-2.499-2.483c-0.009-1.381,1.102-2.508,2.483-2.517
					c1.396-0.009,139.628-0.929,146.848-0.929c1.381,0,2.5,1.119,2.5,2.5c0,1.381-1.119,2.5-2.5,2.5
					c-7.203,0-145.419,0.919-146.814,0.929C263.934,337.877,263.928,337.877,263.922,337.877z"/>
			</g>
			<g>
				<path style="fill:#E0E0E0;" d="M410.754,356.409H263.923c-1.381,0-2.5-1.119-2.5-2.5c0-1.381,1.119-2.5,2.5-2.5h146.831
					c1.381,0,2.5,1.119,2.5,2.5C413.254,355.29,412.135,356.409,410.754,356.409z"/>
			</g>
		</g>
		<g>
			<g>
				<path style="fill:#F0F0F0;" d="M236.08,152.556c1.213,0,2.278-0.885,2.468-2.122c0.209-1.365-0.727-2.641-2.092-2.85
					c-0.667-0.103-67.693-10.244-147.21-10.244c-1.381,0-2.5,1.119-2.5,2.5c0,1.381,1.119,2.5,2.5,2.5
					c79.117,0,145.788,10.084,146.452,10.186C235.827,152.546,235.954,152.556,236.08,152.556z"/>
			</g>
			<g>
				<path style="fill:#F0F0F0;" d="M236.08,171.087c1.242,0,2.319-0.925,2.478-2.189c0.172-1.37-0.799-2.62-2.169-2.792
					c-0.74-0.093-74.872-9.305-147.143-9.305c-1.381,0-2.5,1.119-2.5,2.5c0,1.381,1.119,2.5,2.5,2.5
					c71.949,0,145.782,9.173,146.52,9.266C235.871,171.081,235.977,171.087,236.08,171.087z"/>
			</g>
			<g>
				<path style="fill:#F0F0F0;" d="M236.08,189.619c1.266,0,2.352-0.957,2.484-2.244c0.142-1.373-0.857-2.601-2.231-2.743
					c-0.813-0.084-82.055-8.371-147.087-8.371c-1.381,0-2.5,1.119-2.5,2.5c0,1.381,1.119,2.5,2.5,2.5
					c64.778,0,145.765,8.261,146.575,8.344C235.908,189.615,235.995,189.619,236.08,189.619z"/>
			</g>
			<g>
				<path style="fill:#F0F0F0;" d="M236.08,208.151c1.286,0,2.379-0.986,2.488-2.291c0.116-1.376-0.906-2.585-2.282-2.7
					c-0.886-0.074-89.244-7.438-147.04-7.438c-1.381,0-2.5,1.119-2.5,2.5c0,1.381,1.119,2.5,2.5,2.5
					c57.585,0,145.738,7.346,146.622,7.42C235.939,208.148,236.01,208.151,236.08,208.151z"/>
			</g>
			<g>
				<path style="fill:#F0F0F0;" d="M236.08,226.684c1.304,0,2.402-1.011,2.492-2.331c0.094-1.377-0.947-2.57-2.325-2.663
					c-0.958-0.065-96.435-6.506-147-6.506c-1.381,0-2.5,1.119-2.5,2.5c0,1.381,1.119,2.5,2.5,2.5
					c50.396,0,145.705,6.429,146.662,6.494C235.965,226.682,236.023,226.684,236.08,226.684z"/>
			</g>
			<g>
				<path style="fill:#F0F0F0;" d="M236.08,245.216c1.319,0,2.422-1.032,2.494-2.365c0.074-1.379-0.983-2.557-2.362-2.631
					c-1.031-0.056-103.629-5.575-146.966-5.575c-1.381,0-2.5,1.119-2.5,2.5c0,1.381,1.119,2.5,2.5,2.5
					c43.202,0,145.666,5.512,146.696,5.567C235.988,245.215,236.034,245.216,236.08,245.216z"/>
			</g>
			<g>
				<path style="fill:#F0F0F0;" d="M236.079,263.748c1.332,0,2.439-1.051,2.496-2.395c0.058-1.38-1.013-2.545-2.393-2.603
					c-1.104-0.046-110.826-4.645-146.936-4.645c-1.381,0-2.5,1.119-2.5,2.5c0,1.381,1.119,2.5,2.5,2.5
					c36.006,0,145.623,4.594,146.726,4.641C236.008,263.747,236.044,263.748,236.079,263.748z"/>
			</g>
			<g>
				<path style="fill:#F0F0F0;" d="M236.079,282.28c1.344,0,2.455-1.068,2.497-2.421c0.044-1.38-1.04-2.534-2.419-2.578
					c-1.177-0.037-118.024-3.716-146.91-3.716c-1.381,0-2.5,1.119-2.5,2.5c0,1.381,1.119,2.5,2.5,2.5
					c28.807,0,145.576,3.677,146.752,3.714C236.025,282.28,236.052,282.28,236.079,282.28z"/>
			</g>
			<g>
				<path style="fill:#F0F0F0;" d="M236.078,300.813c1.355,0,2.468-1.083,2.499-2.444c0.031-1.38-1.064-2.525-2.444-2.555
					c-1.249-0.028-125.224-2.787-146.887-2.787c-1.381,0-2.5,1.119-2.5,2.5c0,1.381,1.119,2.5,2.5,2.5
					c21.607,0,145.526,2.758,146.775,2.785C236.04,300.813,236.06,300.813,236.078,300.813z"/>
			</g>
			<g>
				<path style="fill:#F0F0F0;" d="M236.078,319.345c1.365,0,2.48-1.096,2.499-2.465c0.019-1.381-1.084-2.516-2.465-2.535
					c-1.323-0.018-132.426-1.857-146.866-1.857c-1.381,0-2.5,1.119-2.5,2.5s1.119,2.5,2.5,2.5c14.406,0,145.474,1.839,146.796,1.857
					C236.054,319.345,236.066,319.345,236.078,319.345z"/>
			</g>
			<g>
				<path style="fill:#F0F0F0;" d="M236.078,337.877c1.373,0,2.49-1.108,2.499-2.483c0.009-1.381-1.103-2.508-2.483-2.517
					c-1.396-0.009-139.628-0.929-146.848-0.929c-1.381,0-2.5,1.119-2.5,2.5c0,1.381,1.119,2.5,2.5,2.5
					c7.203,0,145.419,0.919,146.814,0.929C236.066,337.877,236.072,337.877,236.078,337.877z"/>
			</g>
			<g>
				<path style="fill:#F0F0F0;" d="M89.246,356.409h146.831c1.381,0,2.5-1.119,2.5-2.5c0-1.381-1.119-2.5-2.5-2.5H89.246
					c-1.381,0-2.5,1.119-2.5,2.5C86.746,355.29,87.865,356.409,89.246,356.409z"/>
			</g>
		</g>
		<polygon style="fill:#E0E0E0;" points="266.105,214.557 257.885,206.557 249.665,214.557 249.665,123.408 266.105,120.408 		"/>
	</g>
</g>
<g id="Background_Simple" style="display:none;">
	<g style="display:inline;">
		<path style="fill:#407BFF;" d="M277.239,75.335c6.092-1.635,12.342-2.737,18.644-3.254c34.539-2.836,69.546,10.816,94.035,33.749
			c39.019,36.539,51.914,94.32,40.428,143.92c-4.344,18.758-13.9,36.991-29.763,49.183c-23.829,18.316-56.954,20.189-86.825,27.415
			c-34.888,8.44-67.105,25.054-95.622,45.644c-14.516,10.481-28.946,22.384-46.864,26.064c-18.947,3.891-39.158-2.394-54.401-13.604
			c-15.243-11.21-26.066-26.878-34.509-43.197c-10.835-20.942-18.28-44.042-16.475-67.241c1.804-23.199,13.994-46.468,35.307-58.488
			c27.544-15.534,66.582-11.311,88.362-33.436c15.013-15.251,16.422-37.958,25.139-57.011
			C225.837,100.725,249.941,82.664,277.239,75.335z"/>
		<path style="opacity:0.9;fill:#FFFFFF;enable-background:new    ;" d="M277.239,75.335c6.092-1.635,12.342-2.737,18.644-3.254
			c34.539-2.836,69.546,10.816,94.035,33.749c39.019,36.539,51.914,94.32,40.428,143.92c-4.344,18.758-13.9,36.991-29.763,49.183
			c-23.829,18.316-56.954,20.189-86.825,27.415c-34.888,8.44-67.105,25.054-95.622,45.644
			c-14.516,10.481-28.946,22.384-46.864,26.064c-18.947,3.891-39.158-2.394-54.401-13.604
			c-15.243-11.21-26.066-26.878-34.509-43.197c-10.835-20.942-18.28-44.042-16.475-67.241c1.804-23.199,13.994-46.468,35.307-58.488
			c27.544-15.534,66.582-11.311,88.362-33.436c15.013-15.251,16.422-37.958,25.139-57.011
			C225.837,100.725,249.941,82.664,277.239,75.335z"/>
	</g>
</g>
<g id="Shadow_1_">
	<ellipse id="_x3C_Path_x3E__359_" style="fill:#F5F5F5;" cx="250" cy="416.238" rx="193.889" ry="11.323"/>
</g>
<g id="Interface">
	<g>
		<g>
			<path style="fill:#407BFF;" d="M228.665,90.195v296.471c0,2.44-1.956,4.335-4.396,4.335H86.293c-1.102,0-2.059-0.412-2.759-1.112
				c-0.731-0.71-1.174-1.719-1.174-2.862V89.835c0-1.936,1.431-3.634,3.367-3.634h39.186c1.102,0,2.111,0.721,2.523,1.76
				l1.627,3.995c0.412,1.03,1.411,1.75,2.522,1.75h47.948c1.112,0,2.111-0.69,2.523-1.719l1.627-4.015
				c0.412-1.04,1.411-1.771,2.522-1.771h38.62C226.956,86.2,228.665,88.053,228.665,90.195z"/>
			<g>
				<g>
					
						<rect x="100.552" y="95.424" transform="matrix(-1 -1.224647e-16 1.224647e-16 -1 203.1435 193.5657)" style="opacity:0.6;fill:#FFFFFF;enable-background:new    ;" width="2.039" height="2.718"/>
					
						<rect x="97.23" y="94.517" transform="matrix(-1 -1.224647e-16 1.224647e-16 -1 196.4981 192.659)" style="opacity:0.6;fill:#FFFFFF;enable-background:new    ;" width="2.039" height="3.625"/>
					
						<rect x="93.907" y="93.61" transform="matrix(-1 -1.224647e-16 1.224647e-16 -1 189.8527 191.7523)" style="opacity:0.6;fill:#FFFFFF;enable-background:new    ;" width="2.039" height="4.531"/>
					
						<rect x="90.584" y="92.704" transform="matrix(-1 -1.224647e-16 1.224647e-16 -1 183.2074 190.8455)" style="opacity:0.6;fill:#FFFFFF;enable-background:new    ;" width="2.039" height="5.438"/>
				</g>
				<g>
					<rect x="208.777" y="94.432" style="opacity:0.6;fill:#FFFFFF;enable-background:new    ;" width="1.208" height="2.718"/>
					
						<rect x="210.816" y="93.44" transform="matrix(-1 -1.224647e-16 1.224647e-16 -1 431.261 191.5819)" style="opacity:0.6;fill:#FFFFFF;enable-background:new    ;" width="9.628" height="4.702"/>
				</g>
			</g>
			<g style="opacity:0.1;enable-background:new    ;">
				<path style="fill:#FFFFFF;" d="M148.181,93.701l-42.119,157.765v0.009l-0.469,1.772v0.009l-0.76,2.842v0.009l-0.478,1.773
					l-21.993,82.38v-99.703l41.209-154.36h1.341c1.107,0,2.11,0.722,2.523,1.763l1.622,3.995c0.413,1.032,1.416,1.744,2.523,1.744
					H148.181z"/>
				<polygon style="fill:#FFFFFF;" points="228.667,174.272 228.667,273.974 202.398,372.373 201.76,374.765 197.427,390.999 
					170.811,390.999 175.144,374.774 175.838,372.167 179.318,359.131 180.012,356.523 181.409,351.309 182.103,348.702 
					183.491,343.487 184.185,340.88 206.084,258.865 206.084,258.856 207.097,255.067 207.097,255.058 				"/>
				<path style="fill:#FFFFFF;" d="M162.605,93.701l-41.856,156.78l-0.253,0.938l-2.288,8.591l-0.253,0.938L83.535,389.892
					c-0.731-0.713-1.172-1.726-1.172-2.87v-15.165l29.608-110.91l0.253-0.938l2.288-8.591l0.253-0.938l41.856-156.78H162.605z"/>
			</g>
		</g>
		<g>
			<rect x="82.36" y="105.525" style="opacity:0.3;fill:#FFFFFF;enable-background:new    ;" width="146.305" height="272.347"/>
			<g>
				<rect x="90.584" y="131.796" style="opacity:0.6;enable-background:new    ;" width="130.028" height="82.375"/>
				<rect x="90.584" y="211.509" style="opacity:0.5;enable-background:new    ;" width="130.028" height="2.662"/>
				<rect x="90.584" y="211.509" style="opacity:0.6;fill:#FFFFFF;enable-background:new    ;" width="45.049" height="2.662"/>
				<path style="fill:#FFFFFF;" d="M139.095,212.927c0,1.743-1.413,3.157-3.157,3.157c-1.743,0-3.157-1.413-3.157-3.157
					c0-1.743,1.413-3.157,3.157-3.157C137.682,209.77,139.095,211.183,139.095,212.927z"/>
				<g>
					<path style="opacity:0.6;fill:#FFFFFF;enable-background:new    ;" d="M157.173,233.737H93.007
						c-1.338,0-2.423-1.085-2.423-2.423v-0.143c0-1.338,1.085-2.423,2.423-2.423h64.166c1.338,0,2.423,1.085,2.423,2.423v0.143
						C159.596,232.652,158.511,233.737,157.173,233.737z"/>
					<path style="opacity:0.6;fill:#FFFFFF;enable-background:new    ;" d="M171.587,226.013h-78.58
						c-1.338,0-2.423-1.085-2.423-2.423v-0.143c0-1.338,1.085-2.423,2.423-2.423h78.58c1.338,0,2.423,1.085,2.423,2.423v0.143
						C174.011,224.928,172.926,226.013,171.587,226.013z"/>
				</g>
				<polygon style="opacity:0.4;fill:#FFFFFF;enable-background:new    ;" points="207.815,221.023 212.999,226.207 
					218.183,221.023 				"/>
			</g>
			<g>
				<rect x="90.584" y="247.455" style="opacity:0.4;fill:#FFFFFF;enable-background:new    ;" width="130.028" height="56.513"/>
				<path style="opacity:0.5;fill:#FFFFFF;enable-background:new    ;" d="M177.679,257.293h-10.324
					c-1.211,0-2.192-0.981-2.192-2.192v-0.13c0-1.211,0.981-2.192,2.192-2.192h10.324c1.211,0,2.192,0.982,2.192,2.192v0.13
					C179.871,256.312,178.89,257.293,177.679,257.293z"/>
				<path style="opacity:0.5;fill:#FFFFFF;enable-background:new    ;" d="M206.508,264.556h-39.152
					c-1.211,0-2.192-0.982-2.192-2.192v-0.13c0-1.211,0.981-2.192,2.192-2.192h39.152c1.211,0,2.192,0.982,2.192,2.192v0.13
					C208.7,263.574,207.718,264.556,206.508,264.556z"/>
				<rect x="96.723" y="252.779" style="opacity:0.3;enable-background:new    ;" width="59.094" height="45.865"/>
			</g>
			<g>
				<rect x="90.584" y="311.29" style="opacity:0.4;fill:#FFFFFF;enable-background:new    ;" width="130.028" height="56.513"/>
				<path style="opacity:0.5;fill:#FFFFFF;enable-background:new    ;" d="M177.679,321.128h-10.324
					c-1.211,0-2.192-0.982-2.192-2.192v-0.13c0-1.211,0.981-2.192,2.192-2.192h10.324c1.211,0,2.192,0.982,2.192,2.192v0.13
					C179.871,320.147,178.89,321.128,177.679,321.128z"/>
				<path style="opacity:0.5;fill:#FFFFFF;enable-background:new    ;" d="M206.508,328.391h-39.152
					c-1.211,0-2.192-0.982-2.192-2.192v-0.13c0-1.211,0.981-2.192,2.192-2.192h39.152c1.211,0,2.192,0.982,2.192,2.192v0.13
					C208.7,327.409,207.718,328.391,206.508,328.391z"/>
				<rect x="96.723" y="316.614" style="opacity:0.3;enable-background:new    ;" width="59.094" height="45.865"/>
			</g>
			<polygon style="opacity:0.6;fill:#FFFFFF;enable-background:new    ;" points="142.414,158.518 142.414,184.703 168.598,171.611 
							"/>
			<g>
				<polygon style="fill:#407BFF;" points="219.451,125.991 214.826,122.004 210.2,125.991 210.2,115.023 219.451,115.023 				"/>
				<path style="fill:#407BFF;" d="M202.764,115.023h-6.963c-0.954,0-1.727,0.773-1.727,1.727v4.762
					c0,0.954,0.773,1.727,1.727,1.727h2.365v2.753l1.795-2.753h2.802c0.954,0,1.727-0.773,1.727-1.727v-4.762
					C204.491,115.796,203.718,115.023,202.764,115.023z"/>
				<path style="fill:#407BFF;" d="M188.805,116.334c-1.285-2.113-3.767-1.318-5.057,0.311c-1.271-1.643-3.744-2.467-5.052-0.368
					c-2.207,3.538,2.28,6.853,4.401,8.153c0.24,0.149,0.439,0.272,0.605,0.369c0.167-0.095,0.367-0.215,0.609-0.362
					C186.447,123.161,190.971,119.897,188.805,116.334z"/>
				<g>
					<path style="fill:#407BFF;enable-background:new    ;" d="M137.173,127.737H93.007c-1.338,0-2.423-1.085-2.423-2.423v-0.143
						c0-1.338,1.085-2.423,2.423-2.423h44.166c1.338,0,2.423,1.085,2.423,2.423v0.143
						C139.596,126.652,138.511,127.737,137.173,127.737z"/>
					<path style="fill:#407BFF;enable-background:new    ;" d="M151.587,120.013h-58.58c-1.338,0-2.423-1.085-2.423-2.423v-0.143
						c0-1.338,1.085-2.423,2.423-2.423h58.58c1.338,0,2.423,1.085,2.423,2.423v0.143
						C154.011,118.928,152.926,120.013,151.587,120.013z"/>
				</g>
			</g>
		</g>
	</g>
</g>
<g id="Plant">
	<g>
		<path style="fill:#407BFF;" d="M81.029,388.98c0,0-5.649-12.326,0.805-24.476c6.455-12.151,8.326-15.013,4.211-17.502
			c-4.115-2.489-6.002,9.72-6.002,9.72s-3.469-8.4-0.605-17.19c2.864-8.791,4.66-23.108,0.749-24.644
			c-3.911-1.536-0.747,17.861-4.14,24.473c0,0-2.85-7.36-3.319-14.421c-0.469-7.061,0.264-18.335-2.825-21.227
			c-3.088-2.892-5.067-0.891-2.032,14.69c3.035,15.581,3.013,28.247,3.013,28.247s-6.703-20.439-11.203-21.035
			s-4.493,6.023-0.642,11.764c3.851,5.741,11.278,16.026,12.496,21.319c0,0-7.358-15.381-13.977-10.667
			c-6.619,4.714,5.761,14.005,11.279,17.362c5.518,3.357,9.35,24.401,9.35,24.401L81.029,388.98z"/>
		<path style="opacity:0.2;enable-background:new    ;" d="M81.029,388.98c0,0-5.649-12.326,0.805-24.476
			c6.455-12.151,8.326-15.013,4.211-17.502c-4.115-2.489-6.002,9.72-6.002,9.72s-3.469-8.4-0.605-17.19
			c2.864-8.791,4.66-23.108,0.749-24.644c-3.911-1.536-0.747,17.861-4.14,24.473c0,0-2.85-7.36-3.319-14.421
			c-0.469-7.061,0.264-18.335-2.825-21.227c-3.088-2.892-5.067-0.891-2.032,14.69c3.035,15.581,3.013,28.247,3.013,28.247
			s-6.703-20.439-11.203-21.035s-4.493,6.023-0.642,11.764c3.851,5.741,11.278,16.026,12.496,21.319c0,0-7.358-15.381-13.977-10.667
			c-6.619,4.714,5.761,14.005,11.279,17.362c5.518,3.357,9.35,24.401,9.35,24.401L81.029,388.98z"/>
		<path style="fill:#407BFF;" d="M76.57,394.035c0,0,5.501-12.409-1.099-24.462c-6.6-12.053-8.505-14.887-4.421-17.438
			c4.084-2.55,6.118,9.63,6.118,9.63s3.367-8.451,0.398-17.198c-2.969-8.747-4.936-23.037-1.044-24.631
			c3.892-1.594,0.961,17.849,4.433,24.409c0,0,2.762-7.402,3.146-14.469c0.384-7.067-0.483-18.329,2.57-21.267
			c3.053-2.938,5.056-0.967,2.208,14.659c-2.848,15.625-2.674,28.29-2.674,28.29s6.458-20.537,10.949-21.201
			c4.492-0.663,4.565,5.956,0.783,11.754c-3.782,5.798-11.085,16.193-12.239,21.503c0,0,7.173-15.49,13.848-10.875
			c6.675,4.615-5.593,14.09-11.07,17.529c-5.477,3.439-9.056,24.538-9.056,24.538L76.57,394.035z"/>
		<g>
			<polygon style="fill:#263238;" points="101.941,385.189 56.498,385.189 60.176,417.708 98.263,417.708 			"/>
		</g>
	</g>
</g>
<g id="Books">
	<g>
		<g>
			<rect x="372.681" y="329.448" style="fill:#407BFF;" width="62.484" height="27.101"/>
			<rect x="372.681" y="329.448" style="opacity:0.8;fill:#FFFFFF;" width="62.484" height="27.101"/>
			<polygon style="opacity:0.2;enable-background:new    ;" points="377.693,332.1 435.164,332.1 435.164,329.448 377.754,329.448 
							"/>
			<g>
				<polygon style="opacity:0.2;enable-background:new    ;" points="377.691,334.411 429.54,335.517 377.691,336.622 				"/>
				<polygon style="opacity:0.2;enable-background:new    ;" points="377.691,344.432 432.597,345.359 377.691,346.138 				"/>
				<polygon style="opacity:0.2;enable-background:new    ;" points="377.691,350.294 432.108,351.395 377.691,352.495 				"/>
				<polygon style="opacity:0.2;enable-background:new    ;" points="435.164,338.272 382.522,339.861 435.164,340.962 				"/>
			</g>
			<path style="fill:#263238;" d="M295.713,342.859c0.004,3.387,1.376,6.45,3.597,8.671c2.225,2.225,5.294,3.597,8.687,3.597h130.05
				c0.5,0,0.905,0.405,0.905,0.905v0.971c0,0.5-0.405,0.905-0.905,0.905H307.321c-4.153,0-7.927-1.687-10.652-4.413
				c-2.75-2.75-4.444-6.558-4.413-10.765c0.061-8.34,7.112-14.953,15.452-14.953l130.341,0c0.5,0,0.905,0.405,0.905,0.905v0.971
				c0,0.5-0.405,0.905-0.905,0.905H308.359C301.592,330.559,295.705,336.092,295.713,342.859z"/>
			<path style="opacity:0.4;fill:#FFFFFF;" d="M295.713,342.859c0.004,3.387,1.376,6.45,3.597,8.671
				c2.225,2.225,5.294,3.597,8.687,3.597h130.05c0.5,0,0.905,0.405,0.905,0.905v0.971c0,0.5-0.405,0.905-0.905,0.905H307.321
				c-4.153,0-7.927-1.687-10.652-4.413c-2.75-2.75-4.444-6.558-4.413-10.765c0.061-8.34,7.112-14.953,15.452-14.953l130.341,0
				c0.5,0,0.905,0.405,0.905,0.905v0.971c0,0.5-0.405,0.905-0.905,0.905H308.359C301.592,330.559,295.705,336.092,295.713,342.859z"
				/>
			<g>
				<path style="fill:#407BFF;" d="M248.284,343.02L248.284,343.02c0,7.495,6.076,13.571,13.57,13.571h115.837v-27.141H261.854
					C254.36,329.449,248.284,335.525,248.284,343.02z"/>
				<path style="opacity:0.7;fill:#FFFFFF;" d="M377.693,329.448v27.146H261.85c-2.865,0-5.516-0.89-7.704-2.401
					c-3.541-2.448-5.859-6.545-5.859-11.172c0-7.5,6.072-13.573,13.564-13.573H377.693z"/>
			</g>
			<g>
				<polygon style="opacity:0.2;enable-background:new    ;" points="377.691,336.622 377.691,334.411 262.227,335.338 				"/>
				<polygon style="opacity:0.2;enable-background:new    ;" points="377.691,346.138 377.691,344.432 325.858,346.286 				"/>
				<polygon style="opacity:0.2;enable-background:new    ;" points="377.691,352.495 377.691,350.294 294.118,351.568 				"/>
				<path style="opacity:0.2;enable-background:new    ;" d="M261.665,332.1c-2.271,0-4.404,0.862-6.036,2.318
					c0.658,1.298,1.279,2.791,1.706,4.404l115.834,0.908l-115.565,0.287c0.167,0.918,0.278,1.864,0.278,2.828
					c0,1.14-0.148,2.262-0.389,3.347l78.017,1.706l-78.749,0.909c-0.751,2.132-1.762,4.014-2.615,5.387
					c-3.541-2.448-5.859-6.545-5.859-11.172c0-7.5,6.072-13.573,13.564-13.573h115.843v2.652H261.665z"/>
			</g>
			<path style="fill:#263238;" d="M249.357,342.859c0.004,3.387,1.376,6.45,3.597,8.671c2.225,2.225,5.294,3.597,8.687,3.597H379.64
				c0.5,0,0.905,0.405,0.905,0.905v0.971c0,0.5-0.405,0.905-0.905,0.905H260.965c-4.153,0-7.927-1.687-10.653-4.413
				c-2.75-2.75-4.443-6.558-4.413-10.765c0.061-8.34,7.112-14.953,15.452-14.953l118.288,0c0.5,0,0.905,0.405,0.905,0.905v0.971
				c0,0.5-0.405,0.905-0.905,0.905H262.003C255.236,330.559,249.349,336.092,249.357,342.859z"/>
			<polygon style="fill:#407BFF;" points="262.227,339.414 262.227,350.294 266.166,346.355 269.983,350.172 269.983,339.414 			"/>
		</g>
		<g>
			<g>
				<rect x="259.116" y="389.249" style="fill:#407BFF;" width="168.639" height="27.141"/>
				<rect x="259.116" y="389.249" style="opacity:0.7;fill:#FFFFFF;" width="168.639" height="27.141"/>
			</g>
			<g>
				<polygon style="opacity:0.2;enable-background:new    ;" points="427.756,396.421 427.756,394.21 312.292,395.137 				"/>
				<polygon style="opacity:0.2;enable-background:new    ;" points="427.756,405.937 427.756,404.231 375.922,406.085 				"/>
				<polygon style="opacity:0.2;enable-background:new    ;" points="427.756,412.294 427.756,410.094 344.182,411.367 				"/>
				<path style="opacity:0.2;enable-background:new    ;" d="M296.818,389.249l-2.445,20.234l2.884-3.08
					c1.334,5.702,5.307,9.987,5.307,9.987s2.681-3.333,4.257-7.786l78.756-0.905l-78.016-1.704c0.233-1.091,0.383-2.214,0.383-3.353
					c0-0.964-0.106-1.907-0.278-2.822l115.567-0.292l-115.834-0.907c-0.421-1.615-1.044-3.107-1.702-4.4
					c1.625-1.462,3.761-2.318,6.037-2.318h116.023v-2.654H296.818z"/>
			</g>
			<path style="fill:#407BFF;" d="M299.422,402.658c0.004,3.387,1.375,6.45,3.597,8.671c2.225,2.225,5.294,3.597,8.687,3.597
				h117.998c0.5,0,0.905,0.405,0.905,0.905v0.971c0,0.5-0.405,0.905-0.905,0.905H246.131c-4.153,0-7.927-1.687-10.652-4.413
				c-2.75-2.75-4.443-6.558-4.413-10.765c0.061-8.34,7.112-14.953,15.452-14.953h183.186c0.5,0,0.905,0.405,0.905,0.905v0.971
				c0,0.5-0.405,0.905-0.905,0.905H312.068C305.3,390.358,299.413,395.891,299.422,402.658z"/>
			<path style="opacity:0.2;enable-background:new    ;" d="M299.422,402.658c0.004,3.387,1.375,6.45,3.597,8.671
				c2.225,2.225,5.294,3.597,8.687,3.597h117.998c0.5,0,0.905,0.405,0.905,0.905v0.971c0,0.5-0.405,0.905-0.905,0.905H246.131
				c-4.153,0-7.927-1.687-10.652-4.413c-2.75-2.75-4.443-6.558-4.413-10.765c0.061-8.34,7.112-14.953,15.452-14.953h183.186
				c0.5,0,0.905,0.405,0.905,0.905v0.971c0,0.5-0.405,0.905-0.905,0.905H312.068C305.3,390.358,299.413,395.891,299.422,402.658z"/>
			<path style="fill:#407BFF;" d="M299.422,402.658c0.004,3.387,1.375,6.45,3.597,8.671c2.225,2.225,5.294,3.597,8.687,3.597
				h117.998c0.5,0,0.905,0.405,0.905,0.905v0.971c0,0.5-0.405,0.905-0.905,0.905H311.029c-4.154,0-7.927-1.687-10.653-4.413
				c-2.75-2.75-4.444-6.558-4.413-10.765c0.061-8.34,7.112-14.953,15.452-14.953h118.288c0.5,0,0.905,0.405,0.905,0.905v0.971
				c0,0.5-0.405,0.905-0.905,0.905H312.068C305.3,390.358,299.413,395.891,299.422,402.658z"/>
			<polygon style="fill:#407BFF;" points="312.292,399.213 312.292,410.094 316.23,406.155 320.047,409.971 320.047,399.213 			"/>
			<path style="opacity:0.2;fill:#FFFFFF;" d="M299.422,402.658c0.004,3.387,1.375,6.45,3.597,8.671
				c2.225,2.225,5.294,3.597,8.687,3.597h117.998c0.5,0,0.905,0.405,0.905,0.905v0.971c0,0.5-0.405,0.905-0.905,0.905H311.029
				c-4.154,0-7.927-1.687-10.653-4.413c-2.75-2.75-4.444-6.558-4.413-10.765c0.061-8.34,7.112-14.953,15.452-14.953h118.288
				c0.5,0,0.905,0.405,0.905,0.905v0.971c0,0.5-0.405,0.905-0.905,0.905H312.068C305.3,390.358,299.413,395.891,299.422,402.658z"/>
		</g>
		<g>
			<g>
				<rect x="272.334" y="359.349" style="fill:#407BFF;" width="168.639" height="27.141"/>
				<rect x="272.334" y="359.349" style="opacity:0.8;fill:#FFFFFF;" width="168.639" height="27.141"/>
			</g>
			<g>
				<polygon style="opacity:0.2;enable-background:new    ;" points="440.973,366.522 440.973,364.311 325.509,365.238 				"/>
				<polygon style="opacity:0.2;enable-background:new    ;" points="440.973,376.037 440.973,374.331 389.139,376.185 				"/>
				<polygon style="opacity:0.2;enable-background:new    ;" points="440.973,382.395 440.973,380.194 357.399,381.467 				"/>
				<path style="opacity:0.2;enable-background:new    ;" d="M310.035,359.349l-2.445,20.234l2.884-3.08
					c1.334,5.702,5.307,9.987,5.307,9.987s2.681-3.333,4.257-7.786l78.756-0.905l-78.016-1.704c0.233-1.091,0.383-2.214,0.383-3.353
					c0-0.964-0.106-1.907-0.278-2.822l115.567-0.292l-115.834-0.907c-0.421-1.615-1.043-3.107-1.702-4.4
					c1.625-1.462,3.761-2.318,6.037-2.318h116.023v-2.655H310.035z"/>
			</g>
			<path style="fill:#407BFF;" d="M312.639,372.759c0.004,3.387,1.376,6.45,3.597,8.671c2.225,2.225,5.294,3.597,8.687,3.597
				h117.998c0.5,0,0.905,0.405,0.905,0.905v0.971c0,0.5-0.405,0.905-0.905,0.905H268.62c-4.154,0-7.927-1.687-10.653-4.413
				c-2.75-2.75-4.443-6.558-4.413-10.765c0.061-8.34,7.112-14.953,15.452-14.953h173.915c0.5,0,0.905,0.405,0.905,0.905v0.971
				c0,0.5-0.405,0.905-0.905,0.905H325.285C318.518,360.458,312.63,365.991,312.639,372.759z"/>
			<path style="opacity:0.4;fill:#FFFFFF;" d="M312.639,372.759c0.004,3.387,1.376,6.45,3.597,8.671
				c2.225,2.225,5.294,3.597,8.687,3.597h117.998c0.5,0,0.905,0.405,0.905,0.905v0.971c0,0.5-0.405,0.905-0.905,0.905H268.62
				c-4.154,0-7.927-1.687-10.653-4.413c-2.75-2.75-4.443-6.558-4.413-10.765c0.061-8.34,7.112-14.953,15.452-14.953h173.915
				c0.5,0,0.905,0.405,0.905,0.905v0.971c0,0.5-0.405,0.905-0.905,0.905H325.285C318.518,360.458,312.63,365.991,312.639,372.759z"
				/>
			<path style="fill:#407BFF;" d="M312.639,372.759c0.004,3.387,1.376,6.45,3.597,8.671c2.225,2.225,5.294,3.597,8.687,3.597
				h117.998c0.5,0,0.905,0.405,0.905,0.905v0.971c0,0.5-0.405,0.905-0.905,0.905H324.247c-4.154,0-7.927-1.687-10.653-4.413
				c-2.75-2.75-4.443-6.558-4.413-10.765c0.061-8.34,7.112-14.953,15.452-14.953h118.288c0.5,0,0.905,0.405,0.905,0.905v0.971
				c0,0.5-0.405,0.905-0.905,0.905H325.285C318.518,360.458,312.63,365.991,312.639,372.759z"/>
			<polygon style="fill:#263238;" points="334.862,365.448 334.862,376.329 338.8,372.39 342.617,376.207 342.617,365.448 			"/>
			<path style="opacity:0.6;fill:#FFFFFF;" d="M312.639,372.759c0.004,3.387,1.376,6.45,3.597,8.671
				c2.225,2.225,5.294,3.597,8.687,3.597h117.998c0.5,0,0.905,0.405,0.905,0.905v0.971c0,0.5-0.405,0.905-0.905,0.905H324.247
				c-4.154,0-7.927-1.687-10.653-4.413c-2.75-2.75-4.443-6.558-4.413-10.765c0.061-8.34,7.112-14.953,15.452-14.953h118.288
				c0.5,0,0.905,0.405,0.905,0.905v0.971c0,0.5-0.405,0.905-0.905,0.905H325.285C318.518,360.458,312.63,365.991,312.639,372.759z"
				/>
		</g>
		<g>
			<rect x="363.409" y="269.649" style="fill:#407BFF;" width="62.484" height="27.101"/>
			<rect x="363.409" y="269.649" style="opacity:0.7;fill:#FFFFFF;" width="62.484" height="27.101"/>
			<polygon style="opacity:0.2;enable-background:new    ;" points="368.422,272.301 425.893,272.301 425.893,269.649 
				368.483,269.649 			"/>
			<g>
				<polygon style="opacity:0.2;enable-background:new    ;" points="368.42,274.612 420.269,275.717 368.42,276.823 				"/>
				<polygon style="opacity:0.2;enable-background:new    ;" points="368.42,284.633 423.326,285.56 368.42,286.339 				"/>
				<polygon style="opacity:0.2;enable-background:new    ;" points="368.42,290.495 422.837,291.595 368.42,292.696 				"/>
				<polygon style="opacity:0.2;enable-background:new    ;" points="425.893,278.473 373.251,280.062 425.893,281.163 				"/>
			</g>
			<path style="fill:#407BFF;" d="M286.442,283.06c0.004,3.387,1.376,6.45,3.597,8.671c2.225,2.225,5.294,3.597,8.687,3.597h130.05
				c0.5,0,0.905,0.405,0.905,0.905v0.971c0,0.5-0.405,0.905-0.905,0.905H298.05c-4.154,0-7.927-1.687-10.653-4.413
				c-2.75-2.75-4.443-6.558-4.413-10.765c0.061-8.34,7.112-14.953,15.452-14.953h130.34c0.5,0,0.905,0.405,0.905,0.905v0.971
				c0,0.5-0.405,0.905-0.905,0.905H299.088C292.321,270.76,286.434,276.293,286.442,283.06z"/>
			<path style="opacity:0.4;fill:#FFFFFF;" d="M286.442,283.06c0.004,3.387,1.376,6.45,3.597,8.671
				c2.225,2.225,5.294,3.597,8.687,3.597h130.05c0.5,0,0.905,0.405,0.905,0.905v0.971c0,0.5-0.405,0.905-0.905,0.905H298.05
				c-4.154,0-7.927-1.687-10.653-4.413c-2.75-2.75-4.443-6.558-4.413-10.765c0.061-8.34,7.112-14.953,15.452-14.953h130.34
				c0.5,0,0.905,0.405,0.905,0.905v0.971c0,0.5-0.405,0.905-0.905,0.905H299.088C292.321,270.76,286.434,276.293,286.442,283.06z"/>
			<g>
				<path style="fill:#407BFF;" d="M239.013,283.221L239.013,283.221c0,7.495,6.076,13.571,13.571,13.571H368.42V269.65H252.583
					C245.088,269.65,239.013,275.726,239.013,283.221z"/>
				<path style="opacity:0.5;fill:#FFFFFF;" d="M368.422,269.649v27.146H252.579c-2.865,0-5.516-0.89-7.704-2.401
					c-3.541-2.448-5.859-6.546-5.859-11.172c0-7.5,6.072-13.573,13.564-13.573H368.422z"/>
			</g>
			<g>
				<polygon style="opacity:0.2;enable-background:new    ;" points="368.42,276.823 368.42,274.612 252.956,275.539 				"/>
				<polygon style="opacity:0.2;enable-background:new    ;" points="368.42,286.339 368.42,284.633 316.586,286.487 				"/>
				<polygon style="opacity:0.2;enable-background:new    ;" points="368.42,292.696 368.42,290.495 284.847,291.769 				"/>
				<path style="opacity:0.2;enable-background:new    ;" d="M252.393,272.301c-2.271,0-4.404,0.862-6.036,2.318
					c0.658,1.298,1.279,2.791,1.706,4.404l115.834,0.908l-115.565,0.287c0.167,0.918,0.278,1.863,0.278,2.828
					c0,1.14-0.148,2.262-0.389,3.347l78.017,1.706l-78.749,0.909c-0.751,2.132-1.762,4.014-2.615,5.387
					c-3.541-2.448-5.859-6.546-5.859-11.172c0-7.5,6.072-13.573,13.564-13.573h115.843v2.652H252.393z"/>
			</g>
			<path style="fill:#407BFF;" d="M240.086,283.06c0.004,3.387,1.376,6.45,3.597,8.671c2.225,2.225,5.294,3.597,8.687,3.597h117.998
				c0.5,0,0.905,0.405,0.905,0.905v0.971c0,0.5-0.405,0.905-0.905,0.905H251.694c-4.153,0-7.927-1.687-10.652-4.413
				c-2.75-2.75-4.443-6.558-4.413-10.765c0.061-8.34,7.112-14.953,15.452-14.953h118.288c0.5,0,0.905,0.405,0.905,0.905v0.971
				c0,0.5-0.405,0.905-0.905,0.905H252.732C245.965,270.76,240.078,276.293,240.086,283.06z"/>
			<polygon style="fill:#407BFF;" points="252.956,279.614 252.956,290.495 256.895,286.556 260.711,290.373 260.711,279.614 			"/>
		</g>
		<g>
			<g>
				<rect x="286.93" y="299.55" style="fill:#407BFF;" width="168.639" height="27.141"/>
				<rect x="286.93" y="299.55" style="opacity:0.7;fill:#FFFFFF;" width="168.639" height="27.141"/>
			</g>
			<g>
				<polygon style="opacity:0.2;enable-background:new    ;" points="455.569,306.722 455.569,304.512 340.105,305.439 				"/>
				<polygon style="opacity:0.2;enable-background:new    ;" points="455.569,316.238 455.569,314.532 403.735,316.386 				"/>
				<polygon style="opacity:0.2;enable-background:new    ;" points="455.569,322.595 455.569,320.395 371.996,321.668 				"/>
				<path style="opacity:0.2;enable-background:new    ;" d="M324.632,299.55l-2.445,20.234l2.884-3.08
					c1.334,5.702,5.307,9.987,5.307,9.987s2.681-3.333,4.257-7.786l78.756-0.905l-78.016-1.704c0.233-1.091,0.382-2.214,0.382-3.353
					c0-0.964-0.106-1.907-0.278-2.822l115.567-0.292l-115.834-0.907c-0.421-1.615-1.043-3.107-1.702-4.4
					c1.625-1.462,3.761-2.318,6.037-2.318h116.023v-2.655H324.632z"/>
			</g>
			<path style="fill:#263238;" d="M327.235,312.96c0.004,3.387,1.376,6.45,3.597,8.671c2.225,2.225,5.294,3.597,8.687,3.597h117.998
				c0.5,0,0.905,0.405,0.905,0.905v0.971c0,0.5-0.405,0.905-0.905,0.905H273.945c-4.154,0-7.927-1.687-10.653-4.413
				c-2.75-2.75-4.443-6.558-4.413-10.765c0.061-8.34,7.112-14.953,15.452-14.953h183.186c0.5,0,0.905,0.405,0.905,0.905v0.971
				c0,0.5-0.405,0.905-0.905,0.905H339.881C333.114,300.659,327.227,306.192,327.235,312.96z"/>
			<path style="opacity:0.2;fill:#FFFFFF;" d="M327.235,312.96c0.004,3.387,1.376,6.45,3.597,8.671
				c2.225,2.225,5.294,3.597,8.687,3.597h117.998c0.5,0,0.905,0.405,0.905,0.905v0.971c0,0.5-0.405,0.905-0.905,0.905H273.945
				c-4.154,0-7.927-1.687-10.653-4.413c-2.75-2.75-4.443-6.558-4.413-10.765c0.061-8.34,7.112-14.953,15.452-14.953h183.186
				c0.5,0,0.905,0.405,0.905,0.905v0.971c0,0.5-0.405,0.905-0.905,0.905H339.881C333.114,300.659,327.227,306.192,327.235,312.96z"
				/>
			<path style="fill:#263238;" d="M327.235,312.96c0.004,3.387,1.376,6.45,3.597,8.671c2.225,2.225,5.294,3.597,8.687,3.597h117.998
				c0.5,0,0.905,0.405,0.905,0.905v0.971c0,0.5-0.405,0.905-0.905,0.905H338.843c-4.153,0-7.927-1.687-10.652-4.413
				c-2.75-2.75-4.444-6.558-4.413-10.765c0.061-8.34,7.112-14.953,15.452-14.953h118.288c0.5,0,0.905,0.405,0.905,0.905v0.971
				c0,0.5-0.405,0.905-0.905,0.905H339.881C333.114,300.659,327.227,306.192,327.235,312.96z"/>
			<polygon style="fill:#263238;" points="340.105,309.514 340.105,320.395 344.044,316.456 347.861,320.272 347.861,309.514 			"/>
			<path style="opacity:0.4;fill:#FFFFFF;" d="M327.235,312.96c0.004,3.387,1.376,6.45,3.597,8.671
				c2.225,2.225,5.294,3.597,8.687,3.597h117.998c0.5,0,0.905,0.405,0.905,0.905v0.971c0,0.5-0.405,0.905-0.905,0.905H338.843
				c-4.153,0-7.927-1.687-10.652-4.413c-2.75-2.75-4.444-6.558-4.413-10.765c0.061-8.34,7.112-14.953,15.452-14.953h118.288
				c0.5,0,0.905,0.405,0.905,0.905v0.971c0,0.5-0.405,0.905-0.905,0.905H339.881C333.114,300.659,327.227,306.192,327.235,312.96z"
				/>
		</g>
	</g>
</g>
<g id="Bubble">
	<g>
		<path style="fill:#407BFF;" d="M405.689,121.307h-54.916c-2.797,0-5.065-2.268-5.065-5.065v-14.941
			c0-2.797,2.268-5.065,5.065-5.065h54.916c2.797,0,5.065,2.268,5.065,5.065v14.941
			C410.754,119.039,408.486,121.307,405.689,121.307z"/>
		<polygon style="fill:#407BFF;" points="357.971,118.553 347.452,132.852 364.422,119.512 		"/>
		<g>
			<path style="fill:#FFFFFF;" d="M358.476,109.62c0,0.995-0.79,1.571-2.303,1.571h-2.977v-5.757h2.813
				c1.439,0,2.179,0.601,2.179,1.497c0,0.576-0.296,1.02-0.765,1.267C358.065,108.403,358.476,108.896,358.476,109.62z
				 M354.52,106.437v1.357h1.324c0.65,0,1.003-0.23,1.003-0.683c0-0.453-0.354-0.675-1.003-0.675H354.52z M357.135,109.48
				c0-0.485-0.37-0.715-1.061-0.715h-1.554v1.423h1.554C356.765,110.188,357.135,109.974,357.135,109.48z"/>
			<path style="fill:#FFFFFF;" d="M359.131,108.313c0-1.711,1.333-2.978,3.15-2.978c1.81,0,3.15,1.258,3.15,2.978
				c0,1.719-1.34,2.977-3.15,2.977C360.463,111.29,359.131,110.023,359.131,108.313z M364.082,108.313
				c0-1.094-0.773-1.842-1.801-1.842c-1.028,0-1.801,0.748-1.801,1.842c0,1.094,0.773,1.842,1.801,1.842
				C363.309,110.155,364.082,109.406,364.082,108.313z"/>
			<path style="fill:#FFFFFF;" d="M366.078,108.313c0-1.711,1.333-2.978,3.15-2.978c1.81,0,3.15,1.258,3.15,2.978
				c0,1.719-1.34,2.977-3.15,2.977C367.41,111.29,366.078,110.023,366.078,108.313z M371.029,108.313
				c0-1.094-0.773-1.842-1.801-1.842c-1.028,0-1.801,0.748-1.801,1.842c0,1.094,0.773,1.842,1.801,1.842
				C370.256,110.155,371.029,109.406,371.029,108.313z"/>
			<path style="fill:#FFFFFF;" d="M375.484,108.929l-0.773,0.806v1.456h-1.324v-5.757h1.324v2.689l2.549-2.689h1.48L376.356,108
				l2.525,3.191h-1.555L375.484,108.929z"/>
			<path style="fill:#FFFFFF;" d="M384.716,111.191l-0.008-3.454l-1.694,2.846h-0.601l-1.686-2.772v3.38h-1.25v-5.757h1.102
				l2.155,3.578l2.122-3.578h1.094l0.017,5.757H384.716z"/>
			<path style="fill:#FFFFFF;" d="M391.13,109.957h-2.673l-0.51,1.234h-1.365l2.566-5.757h1.316l2.574,5.757h-1.398L391.13,109.957z
				 M390.71,108.946l-0.913-2.204l-0.913,2.204H390.71z"/>
			<path style="fill:#FFFFFF;" d="M397.311,111.191l-1.11-1.604h-0.065h-1.16v1.604h-1.332v-5.757h2.492
				c1.538,0,2.5,0.798,2.5,2.089c0,0.863-0.436,1.497-1.184,1.817l1.291,1.851H397.311z M396.061,106.52h-1.085v2.007h1.085
				c0.814,0,1.226-0.378,1.226-1.003C397.287,106.89,396.875,106.52,396.061,106.52z"/>
			<path style="fill:#FFFFFF;" d="M401.79,108.929l-0.773,0.806v1.456h-1.324v-5.757h1.324v2.689l2.549-2.689h1.48L402.662,108
				l2.525,3.191h-1.555L401.79,108.929z"/>
		</g>
	</g>
</g>
<g id="Character">
	<g>
		<polygon style="fill:#B97964;" points="238.488,326.524 245.064,328.107 248.392,319.03 251.414,310.773 243.924,307.578 
			241.045,317.598 		"/>
		<polygon style="opacity:0.2;enable-background:new    ;" points="241.045,317.598 248.392,319.03 251.414,310.773 
			243.924,307.578 		"/>
		<g>
			<path style="fill:#407BFF;" d="M241.705,312.806l9.12,3.39c0,0,24.33-60.83,29.33-61.04c5-0.21,55.91,23.19,68.67,10.21
				c12.76-12.97-5.69-44.24-5.69-44.24s-30.69-4.38-33,2.55c-0.45,1.34-0.94,3.97-1.3,6.22c-0.35,2.12-0.59,3.9-0.59,3.9
				s-0.01,0-0.02-0.01c-0.95-0.24-31.76-8.19-43.9,0.01C251.995,242.136,241.705,312.806,241.705,312.806z"/>
		</g>
		<polygon style="fill:#B97964;" points="294.162,352.472 300.714,350.794 299.454,341.394 298.283,332.773 290.181,333.499 
			292.285,343.545 		"/>
		<polygon style="opacity:0.2;enable-background:new    ;" points="292.336,343.747 299.5,341.574 298.306,332.863 290.192,333.544 
					"/>
		<polygon style="fill:#263238;" points="254.592,312.823 241.308,308.307 240.741,313.75 250.816,317.311 		"/>
		<g>
			<path style="fill:#407BFF;" d="M326.785,268.487c0,0-2.078,0.049-34.269-1.451c0,0,4.811,40.245,7.435,70.373l-9.626,1.641
				c0,0-23-64.513-22.75-74.763s12-13.25,12-13.25S302.51,264.286,326.785,268.487z"/>
			<path style="opacity:0.2;enable-background:new    ;" d="M326.785,268.487c0,0-2.078,0.049-34.269-1.451
				c0,0,4.811,40.245,7.435,70.373l-9.626,1.641c0,0-23-64.513-22.75-74.763s12-13.25,12-13.25S302.51,264.286,326.785,268.487z"/>
		</g>
		<polygon style="fill:#263238;" points="301.359,334.489 288.129,335.994 290.681,341.181 301.392,339.807 		"/>
		<path style="opacity:0.2;enable-background:new    ;" d="M308.245,233.796l17.95,3.74c0,0-9.92-5.48-17.36-7.64
			C308.485,232.016,308.245,233.796,308.245,233.796z"/>
		<g>
			<g>
				<polygon style="fill:#263238;" points="342.394,216.355 343.133,221.13 310.134,223.674 309.26,218.028 				"/>
			</g>
			
				<rect x="331.559" y="215.935" transform="matrix(-0.9948 0.1023 -0.1023 -0.9948 685.5226 405.0748)" style="fill:#407BFF;" width="1.639" height="8.348"/>
			
				<rect x="317.149" y="217.787" transform="matrix(-0.9979 0.0641 -0.0641 -0.9979 655.0255 420.0436)" style="fill:#FFFFFF;" width="7.245" height="5.494"/>
			
				<rect x="311.296" y="216.83" transform="matrix(-0.9947 0.1023 -0.1023 -0.9947 645.2097 408.9071)" style="fill:#407BFF;" width="1.639" height="8.348"/>
		</g>
		<path style="fill:#263238;" d="M227.6,339.296c1-0.46,2.075-0.733,3.174-0.806l0,0c0,0,3.798-2.236,7.562-10.92l4.233-0.025
			c1.465,0.017,2.764,0.947,3.252,2.329c0.069,0.188,0.11,0.386,0.12,0.586c-0.043,1.023-0.151,2.042-0.325,3.051
			c-0.381,3.166-2.475,9.959-2.475,9.959l-0.717-0.183l1.304-6.316c0.434-2.146-1.821-0.073-2.867,2.091
			c-1.046,2.164-2.65,4.342-7.325,3.273C228.089,341.061,225.893,340.276,227.6,339.296z"/>
		<path style="fill:#B97964;" d="M239.103,325.294c0,0-5.285,11.061-8.329,13.195c0,0,4.08,2.433,8.329-2.982
			c5.494-7.003,6.838-5.047,6.838-5.047s-0.233-2.396-0.661-3.569C244.454,324.631,239.103,325.294,239.103,325.294z"/>
		<path style="fill:#263238;" d="M285.822,365.649c0.862-0.684,1.842-1.204,2.892-1.536l0,0c0,0,3.159-3.073,4.757-12.402
			l4.106-1.028c1.428-0.331,2.91,0.265,3.712,1.492c0.112,0.166,0.198,0.349,0.255,0.541c0.201,1.004,0.337,2.019,0.408,3.041
			c0.381,3.166-0.042,10.262-0.042,10.262l-0.74-0.007l-0.231-6.445c-0.088-2.188-1.787,0.361-2.289,2.711
			c-0.503,2.35-1.545,4.846-6.34,4.917C286.714,367.247,284.395,367.006,285.822,365.649z"/>
		<path style="fill:#B97964;" d="M293.675,349.319c0,0-2.512,11.999-4.962,14.794c0,0,4.541,1.396,7.384-4.872
			c3.677-8.106,5.447-6.525,5.447-6.525s-0.794-2.273-1.489-3.311C298.716,347.406,293.675,349.319,293.675,349.319z"/>
		<path style="fill:#B97964;" d="M371.923,250.448l4.747,10.662c0,0,9.626,3.763,9.626,5.046s-4.088,3.493-4.483,3.493
			s-8.967-0.868-9.89-1.671c-0.923-0.803-0.65-4.495-0.65-4.495l-5.548-11.209L371.923,250.448z"/>
		<path style="fill:#B97964;" d="M241.176,143.206l-9.376-6.694c0,0-1.504-5.438-2.493-5.53c-0.989-0.092-10.088-3.653-11.472-3.653
			c-1.385,0-1.385,8.063,0,9.768c1.385,1.705,7.7,4.556,9.289,4.317l10.491,8.611L241.176,143.206z"/>
		<g>
			<path style="fill:#263238;" d="M304.679,164.464c0,0-32.761-5.643-38.968-9.553c-6.207-3.91-32.063-18.663-32.063-18.663
				l-2.901,10.271c0,0,26.448,22.262,36.466,26.482s36.738,13.676,36.738,13.676L304.679,164.464z"/>
			<path style="opacity:0.1;fill:#FFFFFF;enable-background:new    ;" d="M304.68,164.46l-0.22,8.65l-0.51,13.57
				c0,0-3.26-1.18-7.87-2.86c-9.48-3.47-24.68-9.06-28.87-10.82c-10.01-4.22-36.46-26.48-36.46-26.48l2.9-10.27
				c0,0,25.85,14.75,32.06,18.66C271.92,158.82,304.68,164.46,304.68,164.46z"/>
			<path style="opacity:0.2;enable-background:new    ;" d="M304.46,173.11l-0.51,13.57c0,0-3.26-1.18-7.87-2.86
				c2.74-8.24,7.87-13.2,7.87-13.2L304.46,173.11z"/>
		</g>
		<path style="fill:#263238;" d="M340.479,144.542c0,0,1.469,13.83-3.656,17.226c-5.125,3.396-30.326-0.582-33.186-6.145
			c-2.859-5.563,7.899-20.672,7.899-20.672L340.479,144.542z"/>
		<path style="fill:#407BFF;" d="M304.679,164.464c0,0,8.425,2.643,19.013,2.099c10.588-0.544,23.247,4.599,23.247,4.599
			l-4.545,45.194l-33.134,1.673C309.26,218.028,298.127,180.288,304.679,164.464z"/>
		<path style="opacity:0.6;fill:#FFFFFF;" d="M304.679,164.464c0,0,8.425,2.643,19.013,2.099
			c10.588-0.544,23.247,4.599,23.247,4.599l-4.545,45.194l-33.134,1.673C309.26,218.028,298.127,180.288,304.679,164.464z"/>
		<path style="fill:#263238;" d="M310.002,138.943c0,0,1.863-21.948,20.208-13.973c23.027,10.01,4.716,36.742-6.533,31.254
			C312.429,150.735,310.002,138.943,310.002,138.943z"/>
		<path style="opacity:0.2;enable-background:new    ;" d="M315.145,167.788l0.527,12.401l4.115-5.834
			c0,0-1.468,13.716-0.609,21.184c0,0,0.786-13.392,2.65-21.184l4.367,5.834l6.275-12.325
			C332.47,167.865,322.318,164.217,315.145,167.788z"/>
		<path style="fill:#B97964;" d="M320.828,170.095l9.486-2.68c-5.845-4.023-2.898-13.018-2.898-13.018l-9.397,3.304
			c0.502,1.56,0.818,2.884,1.008,4.015c0.982,5.862-1.665,6.33-1.665,6.33L320.828,170.095z"/>
		<path style="opacity:0.2;enable-background:new    ;" d="M318.019,157.701c0.502,1.56,0.818,2.884,1.008,4.015
			c4.498-1.803,8.389-7.319,8.389-7.319L318.019,157.701z"/>
		<g>
			<path style="fill:#B97964;" d="M324.151,129.577c-8.323-1.842-11.988,2.021-14.496,10.463c-3.134,10.55-2.443,18.691,8.47,18.705
				C332.947,158.764,337.974,132.636,324.151,129.577z"/>
			<path style="fill:#A24E3F;" d="M315.139,140.766c0,0-1.634,1.919-3.186,2.916c0,0,0.462,1.29,1.986,1.427L315.139,140.766z"/>
			<g>
				<path style="fill:#263238;" d="M320.384,141.213c-0.167,0.68,0.065,1.322,0.518,1.433c0.453,0.112,0.957-0.349,1.124-1.03
					c0.167-0.68-0.064-1.322-0.518-1.433C321.054,140.072,320.551,140.533,320.384,141.213z"/>
				<path style="fill:#263238;" d="M321.689,140.263l-1.336-0.944C320.352,139.319,320.783,140.745,321.689,140.263z"/>
			</g>
			<g>
				<path style="fill:#263238;" d="M311.963,138.991c-0.167,0.68,0.065,1.322,0.518,1.434c0.454,0.112,0.957-0.349,1.124-1.029
					c0.167-0.68-0.065-1.322-0.518-1.433C312.634,137.85,312.131,138.311,311.963,138.991z"/>
				<path style="fill:#263238;" d="M313.268,138.041l-1.337-0.944C311.932,137.097,312.362,138.523,313.268,138.041z"/>
			</g>
			
				<path style="fill:none;stroke:#263238;stroke-width:0.7247;stroke-linecap:round;stroke-linejoin:round;stroke-miterlimit:10;" d="
				M321.74,135.484c0,0,2.406,0.214,3.331,2.057"/>
			
				<path style="fill:none;stroke:#263238;stroke-width:0.7247;stroke-linecap:round;stroke-linejoin:round;stroke-miterlimit:10;" d="
				M315.767,133.794c0,0-1.35-0.87-3.468-0.05"/>
			<path style="fill:#263238;" d="M330.143,145.618c0,0-2.378-7.7-0.62-12.848c0,0-15.002-10.388-19.521,6.173
				c0,0,1.678-15.222,16.059-12.386c14.358,2.83,9.687,23.753,0.918,28.354C326.979,154.91,331.604,150.427,330.143,145.618z"/>
			<path style="fill:#B97964;" d="M328.395,147.074c0.352-1.328,2.237-3.29,4.669-2.466c2.517,0.852,2.574,6.419-4.123,6.272
				C327.98,150.859,327.66,149.844,328.395,147.074z"/>
			<g>
				<path style="fill:#263238;" d="M312.449,148.271c0.295,1.101,0.431,3.093,0.431,3.093c0.183,0.02,0.366,0.04,0.549,0.051
					c2.485,0.211,3.707-0.512,4.309-1.377c0.327-0.475,0.464-0.999,0.518-1.432c0.068-0.499,0.002-0.871,0.002-0.871
					c-1.384,0.675-3.716,0.657-4.961,0.594C312.776,148.309,312.449,148.271,312.449,148.271z"/>
				<path style="fill:#FFFFFF;" d="M313.298,148.329l0.151,0.909c2.341,0.193,4.015,0.015,4.808-0.632
					c0.068-0.499,0.002-0.871,0.002-0.871C316.874,148.41,314.543,148.392,313.298,148.329z"/>
				<path style="fill:#DE5753;" d="M313.429,151.415c2.485,0.211,3.707-0.512,4.309-1.377c-0.85-0.04-1.878,0.008-2.806,0.312
					C314.223,150.58,313.754,150.988,313.429,151.415z"/>
			</g>
			<path style="fill:#263238;" d="M324.185,130.244c0,0,0.322,14.437,8.984,16.17c8.662,1.733-0.807-18.552-0.807-18.552
				s-12.897-8.424-21.494-2.487c-8.597,5.937-0.865,13.569-0.865,13.569S311.819,128.219,324.185,130.244z"/>
			<path style="fill:none;stroke:#263238;stroke-width:0.5;stroke-linecap:round;stroke-linejoin:round;stroke-miterlimit:10;" d="
				M324.483,129.289c0,0-3.087,9.126,3.009,13.917"/>
			<g>
				<path style="fill:none;" d="M310.522,135.73c-1.91,0-3.464,1.554-3.464,3.464c0,1.91,1.554,3.464,3.464,3.464
					c1.91,0,3.464-1.554,3.464-3.464C313.986,137.283,312.433,135.73,310.522,135.73z"/>
				<path style="fill:none;" d="M319.506,138.195c-1.91,0-3.464,1.554-3.464,3.464c0,1.91,1.554,3.464,3.464,3.464
					c1.91,0,3.464-1.554,3.464-3.464C322.97,139.749,321.417,138.195,319.506,138.195z"/>
				<path style="fill:#263238;" d="M331.371,144.444l-7.988-1.965c0.056-0.265,0.088-0.539,0.088-0.821
					c0-2.186-1.778-3.964-3.964-3.964c-1.727,0-3.185,1.118-3.727,2.663c-0.255-0.347-0.543-0.553-0.865-0.597
					c-0.185-0.027-0.346,0.008-0.492,0.062c0.033-0.206,0.064-0.414,0.064-0.63c0-2.186-1.778-3.964-3.964-3.964
					c-2.186,0-3.964,1.778-3.964,3.964c0,2.186,1.778,3.964,3.964,3.964c1.717,0,3.169-1.105,3.718-2.635
					c0.017-0.018,0.28-0.304,0.609-0.265c0.264,0.037,0.524,0.308,0.756,0.775c-0.033,0.206-0.063,0.413-0.063,0.627
					c0,2.186,1.778,3.964,3.964,3.964c1.729,0,3.187-1.119,3.728-2.666l8.018,1.972c0.02,0.005,0.04,0.007,0.059,0.007
					c0.113,0,0.215-0.076,0.243-0.19C331.587,144.613,331.505,144.477,331.371,144.444z M310.522,142.657
					c-1.91,0-3.464-1.554-3.464-3.464c0-1.91,1.554-3.464,3.464-3.464c1.91,0,3.464,1.554,3.464,3.464
					C313.986,141.104,312.433,142.657,310.522,142.657z M319.506,145.124c-1.91,0-3.464-1.554-3.464-3.464
					c0-1.91,1.554-3.464,3.464-3.464c1.91,0,3.464,1.554,3.464,3.464C322.97,143.569,321.417,145.124,319.506,145.124z"/>
			</g>
			<g style="opacity:0.8;enable-background:new    ;">
				<path style="fill:#FFFFFF;" d="M331.371,144.444l-7.988-1.965c0.056-0.265,0.088-0.539,0.088-0.821
					c0-2.186-1.778-3.964-3.964-3.964c-1.727,0-3.185,1.118-3.727,2.663c-0.255-0.347-0.543-0.553-0.865-0.597
					c-0.185-0.027-0.346,0.008-0.492,0.062c0.033-0.206,0.064-0.414,0.064-0.63c0-2.186-1.778-3.964-3.964-3.964
					c-2.186,0-3.964,1.778-3.964,3.964c0,2.186,1.778,3.964,3.964,3.964c1.717,0,3.169-1.105,3.718-2.635
					c0.017-0.018,0.28-0.304,0.609-0.265c0.264,0.037,0.524,0.308,0.756,0.775c-0.033,0.206-0.063,0.413-0.063,0.627
					c0,2.186,1.778,3.964,3.964,3.964c1.729,0,3.187-1.119,3.728-2.666l8.018,1.972c0.02,0.005,0.04,0.007,0.059,0.007
					c0.113,0,0.215-0.076,0.243-0.19C331.587,144.613,331.505,144.477,331.371,144.444z M310.522,142.657
					c-1.91,0-3.464-1.554-3.464-3.464c0-1.91,1.554-3.464,3.464-3.464c1.91,0,3.464,1.554,3.464,3.464
					C313.986,141.104,312.433,142.657,310.522,142.657z M319.506,145.124c-1.91,0-3.464-1.554-3.464-3.464
					c0-1.91,1.554-3.464,3.464-3.464c1.91,0,3.464,1.554,3.464,3.464C322.97,143.569,321.417,145.124,319.506,145.124z"/>
			</g>
		</g>
		<polygon style="fill:#407BFF;" points="327.77,163.976 321.828,169.813 324.204,176.963 332.47,167.865 		"/>
		<polygon style="fill:#407BFF;" points="319.179,165.196 320.14,169.688 317.062,176.04 315.145,167.788 		"/>
		<g>
			<path style="fill:#263238;" d="M313.429,166.186c0,0-2.325,10.61,5.931,13.009c8.255,2.399,15.889-12.106,15.889-12.106
				s8.982,2.11,12.674,4.483c0,0-2.091,35.634-5.529,44.784l-32.957,2.817c0,0-15.431-37.553-4.758-54.709L313.429,166.186z"/>
			<path style="opacity:0.1;fill:#FFFFFF;enable-background:new    ;" d="M347.92,171.57c0,0-0.66,11.22-1.85,22.68
				c-0.7,6.79-1.58,13.65-2.62,18.34c-0.34,1.51-0.69,2.79-1.06,3.77l-32.95,2.81c0,0-15.43-37.55-4.76-54.71l8.75,1.73
				c0,0-2.33,10.61,5.93,13c8.26,2.4,15.89-12.1,15.89-12.1S344.23,169.2,347.92,171.57z"/>
		</g>
		<path style="opacity:0.2;enable-background:new    ;" d="M346.07,194.25c-0.7,6.79-1.58,13.65-2.62,18.34
			c-3.76-10.04-0.07-21.9-0.07-21.9L346.07,194.25z"/>
		<g>
			<path style="fill:#263238;" d="M347.923,171.571c8.703,5.011,14.894,42.678,15.868,45.601
				c0.61,1.831,11.824,37.493,11.824,37.493l-8.967,4.176c0,0-16.088-28.985-18.725-36.633c-2.637-7.648-3.956-15-3.956-15
				s-2.319-15.479-1-22.025C344.286,178.637,347.923,171.571,347.923,171.571z"/>
			<path style="opacity:0.1;fill:#FFFFFF;enable-background:new    ;" d="M347.923,171.571c8.703,5.011,14.894,42.678,15.868,45.601
				c0.61,1.831,11.824,37.493,11.824,37.493l-8.967,4.176c0,0-16.088-28.985-18.725-36.633c-2.637-7.648-3.956-15-3.956-15
				s-2.319-15.479-1-22.025C344.286,178.637,347.923,171.571,347.923,171.571z"/>
		</g>
		<polygon style="opacity:0.6;fill:#FFFFFF;" points="327.77,163.976 321.828,169.813 324.204,176.963 332.47,167.865 		"/>
		<polygon style="opacity:0.6;fill:#FFFFFF;" points="319.179,165.196 320.14,169.688 317.062,176.04 315.145,167.788 		"/>
	</g>
</g>
</svg>
